<?xml version="1.0" encoding="utf-8"?>
<!-- Generator: Adobe Illustrator 21.1.0, SVG Export Plug-In . SVG Version: 6.00 Build 0)  -->
<svg version="1.1" id="British_Council_logo" xmlns="http://www.w3.org/2000/svg" xmlns:xlink="http://www.w3.org/1999/xlink"
	 x="0px" y="0px" viewBox="0 0 108.3 31.3" style="enable-background:new 0 0 108.3 31.3;" xml:space="preserve">
<style type="text/css">
	.st0{fill:#50185F;}
</style>
<title>BritishCouncil_Negative</title>
<path class="st0" d="M37.9,14.5v-13h4.8c0.8,0,1.5,0.1,2.3,0.4c1.2,0.5,1.9,1.7,1.9,2.9c0,1.1-0.6,2.2-1.6,2.7l0,0
	c1.5,0.2,2.5,1.5,2.4,3c0,1.7-1.2,3.2-2.9,3.6c-0.8,0.2-1.6,0.3-2.5,0.3L37.9,14.5 M43.7,3.7c-0.4-0.2-0.8-0.2-1.2-0.2h-2.4v3.4h2.2
	c0.5,0,1-0.1,1.5-0.3c0.8-0.5,1-1.5,0.5-2.3C44.1,4,43.9,3.8,43.7,3.7 M44.4,9.1c-0.5-0.2-1-0.2-1.5-0.2h-2.8v3.6h2.7
	c0.6,0,1.1-0.1,1.7-0.3c0.6-0.3,1-0.9,1-1.6C45.3,9.9,45,9.3,44.4,9.1L44.4,9.1z"/>
<rect x="60.6" y="1.5" class="st0" width="2.2" height="13"/>
<rect x="76.8" y="1.5" class="st0" width="2.2" height="13"/>
<path class="st0" d="M86.2,1.4c1.2,0,2.5,0.2,3.6,0.7v2.1c-1.1-0.6-2.4-0.9-3.6-0.9c-1.2,0-2.3,0.4-2.3,1.4c0,2.7,6.7,1.6,6.7,6
	c0,2.4-2,4-5,4c-1.5,0-3.1-0.4-4.4-1.2l0.9-1.8c1.1,0.7,2.3,1,3.5,1c1.3,0,2.6-0.5,2.6-1.7c0-2.8-6.6-1.6-6.6-6
	C81.5,2.7,83.4,1.4,86.2,1.4z"/>
<polygon class="st0" points="101.1,14.5 101.1,8.9 94.8,8.9 94.8,14.5 92.5,14.5 92.5,1.5 94.8,1.5 94.8,6.8 101.1,6.8 101.1,1.5 
	103.3,1.5 103.3,14.5 "/>
<path class="st0" d="M42.8,16.7c1.2,0,2.5,0.2,3.6,0.8l-0.7,1.9c-0.8-0.4-1.8-0.6-2.7-0.7c-2.5,0-4,2.1-4,4.6s1.4,4.7,4,4.7
	c0.9,0,1.9-0.2,2.7-0.7l0.7,1.9C45.2,29.8,44,30,42.8,30c-3.9,0-6.1-2.7-6.1-6.6C36.7,19.8,38.9,16.7,42.8,16.7z"/>
<path class="st0" d="M91.4,16.7c1.2,0,2.5,0.2,3.6,0.8l-0.7,1.9c-0.8-0.4-1.8-0.6-2.7-0.7c-2.5,0-4,2.1-4,4.6s1.4,4.7,4,4.7
	c0.9,0,1.9-0.2,2.7-0.7l0.7,1.9c-1.1,0.5-2.4,0.8-3.6,0.8c-3.9,0-6.1-2.7-6.1-6.6C85.3,19.8,87.6,16.7,91.4,16.7z"/>
<path class="st0" d="M59.1,23.3c0,3.9-2.5,6.7-6.1,6.7s-6.1-2.7-6.1-6.6s2.5-6.7,6.1-6.7S59.1,19.4,59.1,23.3 M56.8,23.3
	c0-2.8-1.6-4.6-3.8-4.6s-3.8,1.8-3.8,4.7s1.6,4.7,3.8,4.7S56.7,26.2,56.8,23.3L56.8,23.3z"/>
<path class="st0" d="M60.6,24.9v-8.1h2.2V25c0,2.2,1.2,3,3,3c1.8,0,3-0.8,3-3v-8.2H71v8.1c0,3.5-2,5.1-5.3,5.1
	C62.5,30,60.6,28.5,60.6,24.9z"/>
<path class="st0" d="M75.3,20.4L75.3,20.4c0,0.4,0.1,1.1,0.1,1.7v7.7H73v-13h2.4l6,8.8l0,0c0-0.4-0.1-1.1-0.1-1.7v-7.1h2.2v13h-2
	L75.3,20.4z"/>
<rect x="96.8" y="16.9" class="st0" width="2.2" height="13"/>
<polygon class="st0" points="101.1,29.8 101.1,16.9 103.3,16.9 103.3,27.8 108.3,27.8 108.3,29.8 "/>
<polygon class="st0" points="75.1,1.5 64.5,1.5 64.5,3.5 68.7,3.5 68.7,14.5 70.9,14.5 70.9,3.5 75.1,3.5 "/>
<path class="st0" d="M56.6,14.5c-1.9-3.9-2.4-5-3.2-5h-2.1v5h-2.2v-13h4.4c3.3,0,4.6,1.8,4.6,3.7c0.1,1.5-0.9,2.9-2.4,3.3l0,0
	c0.6,0.3,1.2,1.6,3.4,5.9L56.6,14.5z M53.7,3.5h-2.3v3.9h2.2c1.6,0,2.3-0.8,2.3-2S55.2,3.5,53.7,3.5L53.7,3.5z"/>
<circle class="st0" cx="23.9" cy="7.4" r="7.4"/>
<circle class="st0" cx="7.4" cy="7.4" r="7.4"/>
<circle class="st0" cx="23.9" cy="23.9" r="7.4"/>
<circle class="st0" cx="7.4" cy="23.9" r="7.4"/>
</svg>
