<svg width="1231" height="616" viewBox="0 0 1231 616" fill="none" xmlns="http://www.w3.org/2000/svg">
<path d="M836.547 171.325V71.0879H846.779V118.422L892.512 71.0879H905.599L858.891 119.466L909.427 171.325H896.063L846.779 121.206V171.325H836.547Z" fill="#F4F1EC"/>
<path d="M748.719 171.325V71.0879H787.421C788.396 71.0879 789.486 71.1343 790.693 71.2271C791.946 71.2735 793.199 71.4127 794.452 71.6448C799.696 72.4337 804.127 74.2667 807.747 77.1439C811.413 79.9746 814.174 83.5479 816.031 87.8636C817.933 92.1794 818.885 96.9592 818.885 102.203C818.885 109.767 816.889 116.334 812.898 121.902C808.907 127.471 803.199 130.975 795.774 132.413L792.224 133.249H758.951V171.325H748.719ZM809.418 171.325L789.649 130.534L799.464 126.775L821.182 171.325H809.418ZM758.951 123.503H787.143C787.978 123.503 788.953 123.457 790.066 123.364C791.18 123.271 792.271 123.109 793.338 122.877C796.772 122.134 799.58 120.719 801.761 118.631C803.988 116.543 805.636 114.06 806.703 111.183C807.817 108.305 808.374 105.312 808.374 102.203C808.374 99.0939 807.817 96.1007 806.703 93.2235C805.636 90.3 803.988 87.794 801.761 85.7058C799.58 83.6175 796.772 82.2021 793.338 81.4596C792.271 81.2276 791.18 81.0884 790.066 81.042C788.953 80.9492 787.978 80.9028 787.143 80.9028H758.951V123.503Z" fill="#F4F1EC"/>
<path d="M688.557 173.413C678.58 173.413 670.157 171.209 663.289 166.801C656.421 162.346 651.223 156.197 647.697 148.354C644.17 140.512 642.406 131.462 642.406 121.207C642.406 110.951 644.17 101.902 647.697 94.0592C651.223 86.2166 656.421 80.091 663.289 75.6825C670.157 71.2275 678.58 69 688.557 69C698.581 69 707.003 71.2275 713.825 75.6825C720.693 80.091 725.891 86.2166 729.417 94.0592C732.991 101.902 734.777 110.951 734.777 121.207C734.777 131.462 732.991 140.512 729.417 148.354C725.891 156.197 720.693 162.346 713.825 166.801C707.003 171.209 698.581 173.413 688.557 173.413ZM688.557 163.599C696.4 163.599 702.943 161.812 708.187 158.239C713.431 154.665 717.352 149.7 719.951 143.342C722.596 136.938 723.918 129.56 723.918 121.207C723.918 112.854 722.596 105.498 719.951 99.1407C717.352 92.7831 713.431 87.8176 708.187 84.2444C702.943 80.6711 696.4 78.8613 688.557 78.8149C680.714 78.8149 674.194 80.6015 668.997 84.1747C663.799 87.748 659.878 92.7366 657.233 99.1407C654.634 105.498 653.312 112.854 653.265 121.207C653.219 129.56 654.495 136.915 657.094 143.273C659.739 149.584 663.683 154.549 668.927 158.169C674.171 161.742 680.714 163.552 688.557 163.599Z" fill="#F4F1EC"/>
<path d="M541.957 171.325L513 71.0879H523.65L547.108 153.853L570.427 71.1575L581.147 71.0879L604.605 153.853L627.924 71.0879H638.644L609.756 171.325H599.454L575.787 89.1166L552.259 171.325H541.957Z" fill="#F4F1EC"/>
<path d="M580.869 383.887V357.679H513V337.005L561.865 233.531H586.82L537.955 337.005H580.869V296.284H603.004V337.005H617.935V357.679H603.004V383.887H580.869Z" fill="#F4F1EC"/>
<path d="M1164.94 358.768V258.531H1230.37V276.212H1183.87V297.651H1222.02V315.332H1183.87V341.087H1230.37V358.768H1164.94Z" fill="#F4F1EC"/>
<path d="M1103.51 360.857C1097.2 360.857 1091.19 359.743 1085.49 357.516C1079.78 355.242 1074.72 351.9 1070.31 347.492C1065.95 343.083 1062.49 337.631 1059.94 331.134C1057.43 324.637 1056.18 317.142 1056.18 308.65C1056.18 297.559 1058.29 288.139 1062.51 280.389C1066.78 272.593 1072.49 266.653 1079.64 262.569C1086.83 258.485 1094.79 256.443 1103.51 256.443C1116.41 256.443 1126.55 259.437 1133.93 265.423C1141.31 271.409 1146.25 279.878 1148.76 290.83L1129.41 293.615C1127.6 287.767 1124.63 283.104 1120.5 279.623C1116.41 276.096 1111.17 274.31 1104.77 274.263C1098.41 274.17 1093.12 275.539 1088.9 278.37C1084.67 281.201 1081.49 285.215 1079.36 290.413C1077.27 295.61 1076.23 301.689 1076.23 308.65C1076.23 315.611 1077.27 321.644 1079.36 326.748C1081.49 331.853 1084.67 335.821 1088.9 338.652C1093.12 341.482 1098.41 342.944 1104.77 343.037C1109.08 343.13 1112.98 342.387 1116.46 340.809C1119.99 339.232 1122.96 336.749 1125.37 333.361C1127.78 329.974 1129.5 325.635 1130.52 320.344H1114.65V305.726H1150.71C1150.8 306.33 1150.87 307.397 1150.92 308.929C1150.96 310.46 1150.99 311.342 1150.99 311.574C1150.99 321.18 1149.04 329.695 1145.14 337.12C1141.24 344.545 1135.74 350.369 1128.64 354.592C1121.54 358.769 1113.17 360.857 1103.51 360.857Z" fill="#F4F1EC"/>
<path d="M960.32 358.768V258.531H979.532L1023.11 325.356V258.531H1042.32V358.768H1023.11L979.532 291.944V358.768H960.32Z" fill="#F4F1EC"/>
<path d="M858.328 358.768L888.956 258.531H917.217L947.845 358.768H928.355L901.068 270.365H904.688L877.819 358.768H858.328ZM876.705 337.885V320.205H929.608V337.885H876.705Z" fill="#F4F1EC"/>
<path d="M763.055 358.768V258.531H781.988V299.74H826.816V258.531H845.75V358.768H826.816V317.42H781.988V358.768H763.055Z" fill="#F4F1EC"/>
<path d="M702.204 360.857C692.181 360.857 683.526 358.676 676.24 354.314C669.001 349.951 663.409 343.849 659.464 336.006C655.566 328.164 653.617 319.045 653.617 308.65C653.617 298.255 655.566 289.136 659.464 281.294C663.409 273.451 669.001 267.349 676.24 262.987C683.526 258.624 692.181 256.443 702.204 256.443C713.713 256.443 723.365 259.297 731.162 265.005C739.004 270.713 744.526 278.44 747.728 288.185L728.656 293.475C726.799 287.396 723.667 282.686 719.258 279.345C714.85 275.957 709.165 274.263 702.204 274.263C695.847 274.263 690.533 275.679 686.264 278.509C682.041 281.34 678.862 285.331 676.727 290.482C674.593 295.633 673.525 301.689 673.525 308.65C673.525 315.611 674.593 321.667 676.727 326.818C678.862 331.969 682.041 335.96 686.264 338.791C690.533 341.622 695.847 343.037 702.204 343.037C709.165 343.037 714.85 341.343 719.258 337.955C723.667 334.568 726.799 329.858 728.656 323.825L747.728 329.115C744.526 338.86 739.004 346.587 731.162 352.295C723.365 358.003 713.713 360.857 702.204 360.857Z" fill="#F4F1EC"/>
<path d="M716.797 545.788L751.323 445.551H764.897L799.423 545.788H788.773L755.987 451.259H760.024L727.447 545.788H716.797ZM732.18 521.494V511.888H783.969V521.494H732.18Z" fill="#F4F1EC"/>
<path d="M692.656 545.788V445.551H702.889V545.788H692.656Z" fill="#F4F1EC"/>
<path d="M640.284 547.876C633.277 547.876 626.966 546.716 621.351 544.396C615.782 542.029 611.165 538.688 607.499 534.372C603.879 530.057 601.512 524.929 600.398 518.989L610.84 517.249C612.51 523.745 616.037 528.85 621.42 532.563C626.803 536.229 633.231 538.062 640.702 538.062C645.621 538.062 650.03 537.296 653.928 535.765C657.826 534.187 660.889 531.959 663.116 529.082C665.344 526.205 666.457 522.794 666.457 518.85C666.457 516.251 665.993 514.047 665.065 512.237C664.137 510.38 662.907 508.849 661.376 507.643C659.844 506.436 658.174 505.438 656.364 504.649C654.554 503.814 652.791 503.141 651.074 502.631L625.666 495.043C622.604 494.162 619.773 493.048 617.174 491.702C614.575 490.31 612.302 488.662 610.353 486.76C608.45 484.811 606.965 482.537 605.898 479.938C604.83 477.339 604.297 474.369 604.297 471.028C604.297 465.367 605.782 460.471 608.752 456.341C611.721 452.211 615.782 449.032 620.933 446.804C626.084 444.577 631.954 443.486 638.544 443.533C645.227 443.533 651.19 444.716 656.434 447.083C661.724 449.449 666.086 452.837 669.52 457.246C672.954 461.608 675.228 466.782 676.342 472.768L665.622 474.717C664.926 470.355 663.325 466.573 660.819 463.371C658.313 460.169 655.111 457.71 651.213 455.993C647.361 454.229 643.115 453.324 638.475 453.278C633.973 453.278 629.959 454.044 626.432 455.575C622.952 457.06 620.191 459.102 618.149 461.701C616.107 464.299 615.086 467.269 615.086 470.611C615.086 473.998 616.014 476.713 617.87 478.755C619.773 480.797 622.093 482.398 624.831 483.558C627.616 484.718 630.307 485.669 632.906 486.412L652.536 492.189C654.577 492.746 656.967 493.558 659.705 494.626C662.49 495.647 665.181 497.132 667.78 499.081C670.425 500.983 672.606 503.489 674.323 506.598C676.04 509.708 676.899 513.652 676.899 518.432C676.899 523.072 675.971 527.226 674.114 530.892C672.304 534.558 669.729 537.644 666.388 540.15C663.093 542.656 659.218 544.558 654.763 545.858C650.354 547.204 645.528 547.876 640.284 547.876Z" fill="#F4F1EC"/>
<path d="M513 545.788L547.526 445.551H561.1L595.626 545.788H584.976L552.19 451.259H556.227L523.65 545.788H513ZM528.384 521.494V511.888H580.173V521.494H528.384Z" fill="#F4F1EC"/>
<path d="M0.31324 0.99342C0.0348045 1.6431 -0.0580074 130.652 0.0348045 287.597L0.31324 572.993L79.6674 573.457L159.022 573.921L184.081 579.212C197.91 582.182 226.496 587.936 247.657 592.02C268.818 596.103 305.479 603.25 329.146 607.89C352.72 612.624 372.303 616.151 372.675 615.872C374.16 614.387 375.737 184.854 374.252 183.369C373.974 183.09 370.726 184.483 367.106 186.432C359.403 190.608 350.864 193.578 342.418 195.156L336.571 196.27L336.385 390.432C336.385 497.259 336.014 584.595 335.735 584.595C335.457 584.595 325.897 582.924 314.389 580.975C302.973 578.933 280.605 575.128 264.827 572.529C245.708 569.374 235.591 567.332 234.663 566.404C233.457 565.197 233.271 559.257 233.271 524.453V483.894H217.957H202.643V522.132C202.643 543.108 202.365 560.649 201.901 561.02C200.88 562.041 183.431 559.535 134.891 551.554C84.7721 543.293 82.0805 542.829 81.5237 541.901C81.2452 541.53 81.1524 433.59 81.338 302.261L81.5237 63.2702L92.9395 61.6924C99.1579 60.7643 115.957 58.444 130.25 56.4949C173.593 50.555 298.982 32.4566 317.08 29.5795C326.454 28.0017 334.529 26.7951 334.993 26.7951C335.457 26.7951 335.828 41.645 335.828 63.9199C335.828 84.3385 336.2 101.045 336.571 101.045C337.035 101.045 339.819 100.209 342.696 99.1884C349.379 96.9609 357.361 95.3831 366.92 94.6406L374.345 94.0837V47.2138V0.343701L187.515 0.065259C38.5517 -0.120365 0.591676 0.0653014 0.31324 0.99342Z" fill="#FF8A42"/>
<path d="M265.759 46.4721C265.016 47.6787 263.16 51.7624 261.675 55.5677C251.837 80.9982 254.157 107.542 268.636 137.149L273.369 146.895L264.552 156.64C254.807 167.406 248.681 175.481 241.256 187.082C236.43 194.693 234.667 196.271 234.667 193.115C234.667 190.238 223.622 164.065 219.167 156.361C210.536 141.233 200.976 130.003 190.117 122.021C180.001 114.596 166.357 108.471 159.768 108.471C156.612 108.471 156.612 108.471 157.262 111.905C158.468 118.865 162.459 131.209 165.522 137.799C175.267 158.96 194.665 177.43 230.769 199.983L232.811 201.375L230.49 206.016C225.107 216.596 218.703 234.602 214.991 249.452C212.856 258.176 210.814 265.323 210.536 265.323C210.257 265.323 208.03 262.074 205.431 258.176C190.024 234.416 177.866 221.887 162.181 213.441C154.849 209.543 143.34 205.645 135.915 204.531L131.367 203.788L131.924 206.944C132.295 208.707 135.08 215.111 138.142 221.237C149.93 245.09 170.163 264.209 197.356 277.11C203.296 279.987 208.308 282.4 208.494 282.586C208.68 282.678 208.308 286.02 207.844 290.011C205.802 304.953 204.039 325.929 204.689 326.486C205.06 326.764 211.093 326.95 218.054 326.764L230.676 326.486L230.305 307.274C230.119 296.693 230.212 284.906 230.676 281.193L231.418 274.233L240.236 273.026C265.852 269.406 284.228 261.239 298.057 247.317C305.204 240.078 313.186 227.455 311.608 225.878C311.051 225.321 306.132 224.949 299.357 225.042C276.618 225.321 260.933 232.56 240.978 252.236C236.987 256.041 233.739 258.64 233.739 257.898C233.739 254.928 238.565 235.623 241.349 227.27C246.083 212.884 254.157 195.807 261.489 184.669C262.139 183.648 263.346 183.648 268.729 184.948C295.18 190.98 320.796 191.259 342.143 185.968C352.074 183.463 367.759 176.13 372.957 171.675L376.205 168.798L373.885 166.849C370.172 163.601 357.271 157.846 349.382 155.805C344.278 154.505 338.987 153.948 332.119 153.948C315.228 153.948 300.842 157.568 282.279 166.478C276.525 169.262 271.792 171.211 271.792 170.933C271.792 170.098 276.154 164.529 282.836 156.918C294.623 143.368 313.371 128.611 332.398 117.845L337.688 114.782L340.751 116.638C354.58 125.177 378.432 134.829 394.303 138.263C407.019 141.14 425.488 141.326 436.533 138.727C444.051 137.057 450.919 134.643 450.919 133.808C450.919 132.323 446.092 127.033 440.06 121.928C420.383 105.129 393.746 99.0965 360.427 103.923C337.967 107.264 312.165 118.401 288.591 135.2L282.651 139.47L283.3 136.314C286.92 118.587 287.848 110.791 287.848 97.7971C287.848 81.9263 286.363 74.3157 280.702 62.5286C277.268 55.4749 269.657 44.4303 268.172 44.4303C267.615 44.4303 266.594 45.3584 265.759 46.4721Z" fill="#F4F1EC"/>
<path d="M114.504 275.693C107.914 279.127 107.45 280.797 106.8 304C106.058 331.658 106.986 336.113 113.761 339.64C117.474 341.496 124.434 341.032 127.776 338.526C132.88 334.814 133.252 332.865 132.88 306.785C132.602 285.809 132.416 282.561 130.931 280.333C127.312 274.765 120.165 272.816 114.504 275.693Z" fill="#0A3B44"/>
<path d="M204.412 345.791C207.01 368.623 205.34 439.624 201.627 464.59L201.07 468.581H217.498H234.019L233.369 464.219C230.677 444.264 229.285 358.599 231.513 346.812C232.348 342.45 232.255 341.429 231.234 340.965C230.492 340.686 223.995 340.501 216.848 340.501H203.762L204.412 345.791Z" fill="#C45A23"/>
</svg>
