<svg width="887" height="1212" viewBox="0 0 887 1212" fill="none" xmlns="http://www.w3.org/2000/svg">
<path d="M0.616173 1.95296C0.0684637 3.23095 -0.114106 257.003 0.0684637 565.729L0.616173 1127.13L156.713 1128.04L312.811 1128.96L362.105 1139.36C389.308 1145.21 445.539 1156.52 487.165 1164.56C528.791 1172.59 600.906 1186.65 647.461 1195.78C693.834 1205.09 732.356 1212.03 733.087 1211.48C736.008 1208.56 739.111 363.624 736.19 360.703C735.643 360.155 729.253 362.894 722.132 366.728C706.979 374.943 690.183 380.785 673.569 383.889L662.067 386.08L661.702 768.016C661.702 978.154 660.972 1149.95 660.424 1149.95C659.876 1149.95 641.071 1146.67 618.433 1142.83C595.977 1138.82 551.977 1131.33 520.94 1126.22C483.331 1120.01 463.431 1115.99 461.605 1114.17C459.232 1111.8 458.867 1100.11 458.867 1031.65V951.864H428.743H398.619V1027.08C398.619 1068.34 398.071 1102.85 397.158 1103.58C395.15 1105.59 360.827 1100.66 265.343 1084.96C166.755 1068.71 161.46 1067.8 160.365 1065.97C159.817 1065.24 159.635 852.911 160 594.575L160.365 124.457L182.821 121.354C195.053 119.528 228.098 114.964 256.214 111.13C341.474 99.4453 588.126 63.8441 623.727 58.1845C642.167 55.0808 658.05 52.7074 658.963 52.7074C659.876 52.7074 660.606 81.9185 660.606 125.735C660.606 165.901 661.337 198.763 662.067 198.763C662.98 198.763 668.457 197.12 674.117 195.112C687.262 190.73 702.963 187.627 721.767 186.166L736.373 185.071V92.8728V0.674901L368.86 0.127178C75.835 -0.237962 1.16388 0.127262 0.616173 1.95296Z" fill="#FF8A42"/>
<path d="M522.775 91.4147C521.315 93.7881 517.663 101.821 514.742 109.307C495.39 159.331 499.954 211.546 528.435 269.786L537.746 288.955L520.402 308.125C501.232 329.303 489.182 345.187 474.577 368.008C465.083 382.979 461.614 386.083 461.614 379.875C461.614 374.216 439.889 322.731 431.125 307.577C414.146 277.819 395.341 255.728 373.981 240.027C354.081 225.421 327.243 213.371 314.28 213.371C308.073 213.371 308.073 213.371 309.351 220.126C311.724 233.819 319.575 258.101 325.6 271.064C344.77 312.689 382.927 349.021 453.946 393.385L457.963 396.124L453.399 405.252C442.81 426.065 430.212 461.484 422.91 490.695C418.71 507.857 414.694 521.915 414.146 521.915C413.598 521.915 409.217 515.525 404.105 507.857C373.798 461.119 349.882 436.472 319.027 419.858C304.604 412.19 281.966 404.522 267.36 402.331L258.414 400.871L259.509 407.078C260.24 410.547 265.717 423.144 271.742 435.194C294.928 482.114 334.728 519.724 388.221 545.101C399.906 550.761 409.765 555.507 410.13 555.873C410.495 556.055 409.765 562.628 408.852 570.478C404.835 599.872 401.366 641.133 402.644 642.228C403.375 642.776 415.242 643.141 428.934 642.776L453.764 642.228L453.034 604.436C452.668 583.623 452.851 560.437 453.764 553.134L455.224 539.441L472.569 537.068C522.958 529.948 559.107 513.882 586.31 486.496C600.367 472.256 616.069 447.426 612.965 444.322C611.869 443.227 602.193 442.497 588.866 442.679C544.136 443.227 513.282 457.467 474.029 496.172C466.179 503.658 459.789 508.77 459.789 507.309C459.789 501.467 469.282 463.492 474.759 447.061C484.07 418.763 499.954 385.17 514.377 363.261C515.655 361.253 518.028 361.253 528.618 363.809C580.65 375.676 631.039 376.224 673.03 365.817C692.565 360.888 723.42 346.465 733.644 337.702L740.033 332.042L735.469 328.208C728.166 321.818 702.789 310.499 687.271 306.482C677.229 303.926 666.823 302.831 653.313 302.831C620.085 302.831 591.787 309.951 555.273 327.478C543.953 332.955 534.642 336.789 534.642 336.241C534.642 334.598 543.223 323.644 556.368 308.673C579.555 282.018 616.434 252.989 653.86 231.811L664.267 225.786L670.292 229.438C697.495 246.234 744.415 265.221 775.635 271.976C800.647 277.636 836.978 278.001 858.704 272.889C873.492 269.603 887.002 264.856 887.002 263.213C887.002 260.292 877.509 249.885 865.642 239.844C826.937 206.799 774.539 194.932 708.997 204.425C664.815 210.998 614.06 232.906 567.687 265.952L556.003 274.35L557.281 268.142C564.401 233.272 566.227 217.936 566.227 192.376C566.227 161.156 563.306 146.186 552.169 122.999C545.414 109.124 530.443 87.3982 527.522 87.3982C526.427 87.3982 524.418 89.2239 522.775 91.4147Z" fill="#F4F1EC"/>
<path d="M225.239 542.313C212.276 549.068 211.363 552.355 210.085 597.997C208.625 652.403 210.451 661.166 223.778 668.104C231.081 671.755 244.774 670.842 251.346 665.913C261.388 658.61 262.118 654.776 261.388 603.474C260.84 562.213 260.475 555.823 257.554 551.442C250.433 540.487 236.376 536.653 225.239 542.313Z" fill="#0A3B44"/>
<path d="M402.096 680.203C407.208 725.115 403.922 864.781 396.619 913.893L395.523 921.743H427.838H460.336L459.058 913.162C453.763 873.91 451.025 705.398 455.406 682.211C457.05 673.631 456.867 671.622 454.859 670.71C453.398 670.162 440.618 669.797 426.56 669.797H400.818L402.096 680.203Z" fill="#C45A23"/>
</svg>
