<svg width="887" height="1212" viewBox="0 0 887 1212" fill="none" xmlns="http://www.w3.org/2000/svg">
<path d="M0.616173 1.95296C0.0684637 3.23095 -0.114106 257.003 0.0684637 565.729L0.616173 1127.13L156.713 1128.04L312.811 1128.96L362.105 1139.36C389.308 1145.21 445.539 1156.52 487.165 1164.56C528.791 1172.59 600.906 1186.65 647.461 1195.78C693.834 1205.09 732.356 1212.03 733.087 1211.48C736.008 1208.56 739.111 363.624 736.19 360.703C735.643 360.155 729.253 362.894 722.132 366.728C706.979 374.943 690.183 380.785 673.569 383.889L662.067 386.08L661.702 768.016C661.702 978.154 660.972 1149.95 660.424 1149.95C659.876 1149.95 641.071 1146.67 618.433 1142.83C595.977 1138.82 551.977 1131.33 520.94 1126.22C483.331 1120.01 463.431 1115.99 461.605 1114.17C459.232 1111.8 458.867 1100.11 458.867 1031.65V951.864H428.743H398.619V1027.08C398.619 1068.34 398.071 1102.85 397.158 1103.58C395.15 1105.59 360.827 1100.66 265.343 1084.96C166.755 1068.71 161.46 1067.8 160.365 1065.97C159.817 1065.24 159.635 852.911 160 594.575L160.365 124.457L182.821 121.354C195.053 119.528 228.098 114.964 256.214 111.13C341.474 99.4453 588.126 63.8441 623.727 58.1845C642.167 55.0808 658.05 52.7074 658.963 52.7074C659.876 52.7074 660.606 81.9185 660.606 125.735C660.606 165.901 661.337 198.763 662.067 198.763C662.98 198.763 668.457 197.12 674.117 195.112C687.262 190.73 702.963 187.627 721.767 186.166L736.373 185.071V92.8728V0.674901L368.86 0.127178C75.835 -0.237962 1.16388 0.127262 0.616173 1.95296Z" fill="#FF8A42"/>
<path d="M522.775 91.4137C521.315 93.7871 517.663 101.82 514.742 109.306C495.39 159.33 499.954 211.545 528.435 269.785L537.746 288.954L520.402 308.124C501.232 329.302 489.182 345.186 474.577 368.007C465.083 382.978 461.614 386.082 461.614 379.874C461.614 374.215 439.889 322.73 431.125 307.577C414.146 277.818 395.341 255.727 373.981 240.026C354.081 225.42 327.243 213.37 314.28 213.37C308.073 213.37 308.073 213.37 309.351 220.126C311.724 233.818 319.575 258.1 325.6 271.063C344.77 312.688 382.927 349.02 453.946 393.384L457.963 396.123L453.399 405.251C442.81 426.064 430.212 461.483 422.91 490.694C418.71 507.856 414.694 521.914 414.146 521.914C413.598 521.914 409.217 515.524 404.105 507.856C373.798 461.118 349.882 436.471 319.027 419.857C304.604 412.189 281.966 404.521 267.36 402.33L258.414 400.87L259.509 407.077C260.24 410.546 265.717 423.143 271.742 435.193C294.928 482.113 334.728 519.723 388.221 545.1C399.906 550.76 409.765 555.506 410.13 555.872C410.495 556.054 409.765 562.627 408.852 570.477C404.835 599.871 401.366 641.132 402.644 642.227C403.375 642.775 415.242 643.14 428.934 642.775L453.764 642.227L453.034 604.435C452.668 583.622 452.851 560.436 453.764 553.133L455.224 539.44L472.569 537.067C522.958 529.947 559.107 513.881 586.31 486.495C600.367 472.255 616.069 447.425 612.965 444.321C611.869 443.226 602.193 442.496 588.866 442.678C544.136 443.226 513.282 457.466 474.029 496.171C466.179 503.657 459.789 508.769 459.789 507.308C459.789 501.466 469.282 463.491 474.759 447.06C484.07 418.762 499.954 385.169 514.377 363.26C515.655 361.252 518.028 361.252 528.618 363.808C580.65 375.675 631.039 376.223 673.03 365.816C692.565 360.887 723.42 346.464 733.644 337.701L740.033 332.041L735.469 328.207C728.166 321.817 702.789 310.498 687.271 306.481C677.229 303.925 666.823 302.83 653.313 302.83C620.085 302.83 591.787 309.95 555.273 327.477C543.953 332.954 534.642 336.788 534.642 336.24C534.642 334.597 543.223 323.643 556.368 308.672C579.555 282.017 616.434 252.988 653.86 231.81L664.267 225.785L670.292 229.437C697.495 246.233 744.415 265.22 775.635 271.975C800.647 277.635 836.978 278 858.704 272.888C873.492 269.602 887.002 264.855 887.002 263.212C887.002 260.291 877.509 249.884 865.642 239.843C826.937 206.798 774.539 194.931 708.997 204.424C664.815 210.997 614.06 232.905 567.687 265.951L556.003 274.349L557.281 268.141C564.401 233.271 566.227 217.935 566.227 192.375C566.227 161.155 563.306 146.185 552.169 122.998C545.414 109.123 530.443 87.3972 527.522 87.3972C526.427 87.3972 524.418 89.2229 522.775 91.4137Z" fill="#0A3B44"/>
<path d="M225.239 542.312C212.276 549.067 211.363 552.354 210.085 597.996C208.625 652.402 210.451 661.165 223.778 668.103C231.081 671.754 244.774 670.841 251.346 665.912C261.388 658.609 262.118 654.775 261.388 603.473C260.84 562.212 260.475 555.822 257.554 551.441C250.433 540.486 236.376 536.653 225.239 542.312Z" fill="#0A3B44"/>
<path d="M402.096 680.202C407.208 725.114 403.922 864.78 396.619 913.892L395.523 921.742H427.838H460.336L459.058 913.161C453.763 873.909 451.025 705.397 455.406 682.21C457.05 673.63 456.867 671.621 454.859 670.709C453.398 670.161 440.618 669.796 426.56 669.796H400.818L402.096 680.202Z" fill="#C45A23"/>
</svg>
