<svg width="1231" height="616" viewBox="0 0 1231 616" fill="none" xmlns="http://www.w3.org/2000/svg">
<path d="M836.547 171.326V71.0889H846.779V118.423L892.512 71.0889H905.599L858.891 119.467L909.427 171.326H896.063L846.779 121.207V171.326H836.547Z" fill="black"/>
<path d="M748.719 171.326V71.0889H787.421C788.396 71.0889 789.486 71.1353 790.693 71.2281C791.946 71.2745 793.199 71.4137 794.452 71.6457C799.696 72.4346 804.127 74.2677 807.747 77.1448C811.413 79.9756 814.174 83.5489 816.031 87.8646C817.933 92.1804 818.885 96.9602 818.885 102.204C818.885 109.768 816.889 116.335 812.898 121.903C808.907 127.472 803.199 130.976 795.774 132.414L792.224 133.25H758.951V171.326H748.719ZM809.418 171.326L789.649 130.535L799.464 126.776L821.182 171.326H809.418ZM758.951 123.504H787.143C787.978 123.504 788.953 123.458 790.066 123.365C791.18 123.272 792.271 123.11 793.338 122.878C796.772 122.135 799.58 120.72 801.761 118.632C803.988 116.544 805.636 114.061 806.703 111.184C807.817 108.306 808.374 105.313 808.374 102.204C808.374 99.0949 807.817 96.1017 806.703 93.2245C805.636 90.3009 803.988 87.795 801.761 85.7067C799.58 83.6185 796.772 82.2031 793.338 81.4606C792.271 81.2286 791.18 81.0894 790.066 81.0429C788.953 80.9501 787.978 80.9037 787.143 80.9037H758.951V123.504Z" fill="black"/>
<path d="M688.557 173.414C678.58 173.414 670.157 171.21 663.289 166.802C656.421 162.347 651.223 156.198 647.697 148.355C644.17 140.513 642.406 131.463 642.406 121.208C642.406 110.952 644.17 101.903 647.697 94.0602C651.223 86.2176 656.421 80.092 663.289 75.6834C670.157 71.2285 678.58 69.001 688.557 69.001C698.581 69.001 707.003 71.2285 713.825 75.6834C720.693 80.092 725.891 86.2176 729.417 94.0602C732.991 101.903 734.777 110.952 734.777 121.208C734.777 131.463 732.991 140.513 729.417 148.355C725.891 156.198 720.693 162.347 713.825 166.802C707.003 171.21 698.581 173.414 688.557 173.414ZM688.557 163.6C696.4 163.6 702.943 161.813 708.187 158.24C713.431 154.666 717.352 149.701 719.951 143.343C722.596 136.939 723.918 129.561 723.918 121.208C723.918 112.855 722.596 105.499 719.951 99.1416C717.352 92.784 713.431 87.8186 708.187 84.2453C702.943 80.6721 696.4 78.8622 688.557 78.8158C680.714 78.8158 674.194 80.6025 668.997 84.1757C663.799 87.749 659.878 92.7376 657.233 99.1416C654.634 105.499 653.312 112.855 653.265 121.208C653.219 129.561 654.495 136.916 657.094 143.274C659.739 149.585 663.683 154.55 668.927 158.17C674.171 161.743 680.714 163.553 688.557 163.6Z" fill="black"/>
<path d="M541.957 171.326L513 71.0889H523.65L547.108 153.854L570.427 71.1585L581.147 71.0889L604.605 153.854L627.924 71.0889H638.644L609.756 171.326H599.454L575.787 89.1176L552.259 171.326H541.957Z" fill="black"/>
<path d="M580.869 383.888V357.68H513V337.006L561.865 233.532H586.82L537.955 337.006H580.869V296.285H603.004V337.006H617.935V357.68H603.004V383.888H580.869Z" fill="black"/>
<path d="M1164.94 358.769V258.532H1230.37V276.213H1183.87V297.652H1222.02V315.333H1183.87V341.088H1230.37V358.769H1164.94Z" fill="black"/>
<path d="M1103.51 360.858C1097.2 360.858 1091.19 359.744 1085.49 357.517C1079.78 355.243 1074.72 351.901 1070.31 347.493C1065.95 343.084 1062.49 337.632 1059.94 331.135C1057.43 324.638 1056.18 317.143 1056.18 308.651C1056.18 297.56 1058.29 288.14 1062.51 280.39C1066.78 272.594 1072.49 266.654 1079.64 262.57C1086.83 258.486 1094.79 256.444 1103.51 256.444C1116.41 256.444 1126.55 259.438 1133.93 265.424C1141.31 271.41 1146.25 279.879 1148.76 290.831L1129.41 293.616C1127.6 287.768 1124.63 283.105 1120.5 279.624C1116.41 276.097 1111.17 274.311 1104.77 274.264C1098.41 274.171 1093.12 275.54 1088.9 278.371C1084.67 281.202 1081.49 285.216 1079.36 290.414C1077.27 295.611 1076.23 301.69 1076.23 308.651C1076.23 315.612 1077.27 321.645 1079.36 326.749C1081.49 331.854 1084.67 335.822 1088.9 338.652C1093.12 341.483 1098.41 342.945 1104.77 343.038C1109.08 343.131 1112.98 342.388 1116.46 340.81C1119.99 339.233 1122.96 336.75 1125.37 333.362C1127.78 329.975 1129.5 325.636 1130.52 320.345H1114.65V305.727H1150.71C1150.8 306.331 1150.87 307.398 1150.92 308.929C1150.96 310.461 1150.99 311.343 1150.99 311.575C1150.99 321.181 1149.04 329.696 1145.14 337.121C1141.24 344.546 1135.74 350.37 1128.64 354.593C1121.54 358.769 1113.17 360.858 1103.51 360.858Z" fill="black"/>
<path d="M960.32 358.769V258.532H979.532L1023.11 325.357V258.532H1042.32V358.769H1023.11L979.532 291.945V358.769H960.32Z" fill="black"/>
<path d="M858.328 358.769L888.956 258.532H917.217L947.845 358.769H928.355L901.068 270.366H904.688L877.819 358.769H858.328ZM876.705 337.886V320.206H929.608V337.886H876.705Z" fill="black"/>
<path d="M763.055 358.769V258.532H781.988V299.741H826.816V258.532H845.75V358.769H826.816V317.421H781.988V358.769H763.055Z" fill="black"/>
<path d="M702.204 360.858C692.181 360.858 683.526 358.677 676.24 354.315C669.001 349.952 663.409 343.85 659.464 336.007C655.566 328.165 653.617 319.046 653.617 308.651C653.617 298.256 655.566 289.137 659.464 281.295C663.409 273.452 669.001 267.35 676.24 262.988C683.526 258.625 692.181 256.444 702.204 256.444C713.713 256.444 723.365 259.298 731.162 265.006C739.004 270.714 744.526 278.441 747.728 288.186L728.656 293.476C726.799 287.397 723.667 282.687 719.258 279.346C714.85 275.958 709.165 274.264 702.204 274.264C695.847 274.264 690.533 275.68 686.264 278.51C682.041 281.341 678.862 285.332 676.727 290.483C674.593 295.634 673.525 301.69 673.525 308.651C673.525 315.612 674.593 321.668 676.727 326.819C678.862 331.97 682.041 335.961 686.264 338.792C690.533 341.622 695.847 343.038 702.204 343.038C709.165 343.038 714.85 341.344 719.258 337.956C723.667 334.569 726.799 329.859 728.656 323.826L747.728 329.116C744.526 338.861 739.004 346.588 731.162 352.296C723.365 358.004 713.713 360.858 702.204 360.858Z" fill="black"/>
<path d="M716.797 545.789L751.323 445.552H764.897L799.423 545.789H788.773L755.987 451.26H760.024L727.447 545.789H716.797ZM732.18 521.495V511.889H783.969V521.495H732.18Z" fill="black"/>
<path d="M692.656 545.789V445.552H702.889V545.789H692.656Z" fill="black"/>
<path d="M640.284 547.877C633.277 547.877 626.966 546.717 621.351 544.397C615.782 542.03 611.165 538.689 607.499 534.373C603.879 530.058 601.512 524.93 600.398 518.99L610.84 517.25C612.51 523.746 616.037 528.851 621.42 532.563C626.803 536.23 633.231 538.063 640.702 538.063C645.621 538.063 650.03 537.297 653.928 535.766C657.826 534.188 660.889 531.96 663.116 529.083C665.344 526.206 666.457 522.795 666.457 518.851C666.457 516.252 665.993 514.048 665.065 512.238C664.137 510.381 662.907 508.85 661.376 507.643C659.844 506.437 658.174 505.439 656.364 504.65C654.554 503.815 652.791 503.142 651.074 502.632L625.666 495.044C622.604 494.163 619.773 493.049 617.174 491.703C614.575 490.311 612.302 488.663 610.353 486.761C608.45 484.812 606.965 482.538 605.898 479.939C604.83 477.34 604.297 474.37 604.297 471.029C604.297 465.368 605.782 460.472 608.752 456.342C611.721 452.212 615.782 449.033 620.933 446.805C626.084 444.578 631.954 443.487 638.544 443.534C645.227 443.534 651.19 444.717 656.434 447.084C661.724 449.45 666.086 452.838 669.52 457.247C672.954 461.609 675.228 466.783 676.342 472.769L665.622 474.718C664.926 470.356 663.325 466.574 660.819 463.372C658.313 460.17 655.111 457.711 651.213 455.994C647.361 454.23 643.115 453.325 638.475 453.279C633.973 453.279 629.959 454.045 626.432 455.576C622.952 457.061 620.191 459.103 618.149 461.702C616.107 464.3 615.086 467.27 615.086 470.612C615.086 473.999 616.014 476.714 617.87 478.756C619.773 480.798 622.093 482.399 624.831 483.559C627.616 484.719 630.307 485.67 632.906 486.413L652.536 492.19C654.577 492.747 656.967 493.559 659.705 494.627C662.49 495.648 665.181 497.133 667.78 499.082C670.425 500.984 672.606 503.49 674.323 506.599C676.04 509.709 676.899 513.653 676.899 518.433C676.899 523.073 675.971 527.227 674.114 530.893C672.304 534.559 669.729 537.645 666.388 540.151C663.093 542.657 659.218 544.559 654.763 545.859C650.354 547.205 645.528 547.877 640.284 547.877Z" fill="black"/>
<path d="M513 545.789L547.526 445.552H561.1L595.626 545.789H584.976L552.19 451.26H556.227L523.65 545.789H513ZM528.384 521.495V511.889H580.173V521.495H528.384Z" fill="black"/>
<path d="M0.31324 0.99342C0.0348045 1.6431 -0.0580074 130.652 0.0348045 287.597L0.31324 572.993L79.6674 573.457L159.022 573.921L184.081 579.212C197.91 582.182 226.496 587.936 247.657 592.02C268.818 596.103 305.479 603.25 329.146 607.89C352.72 612.624 372.303 616.151 372.675 615.872C374.16 614.387 375.737 184.854 374.252 183.369C373.974 183.09 370.726 184.483 367.106 186.432C359.403 190.608 350.864 193.578 342.418 195.156L336.571 196.27L336.385 390.432C336.385 497.259 336.014 584.595 335.735 584.595C335.457 584.595 325.897 582.924 314.389 580.975C302.973 578.933 280.605 575.128 264.827 572.529C245.708 569.374 235.591 567.332 234.663 566.404C233.457 565.197 233.271 559.257 233.271 524.453V483.894H217.957H202.643V522.132C202.643 543.108 202.365 560.649 201.901 561.02C200.88 562.041 183.431 559.535 134.891 551.554C84.7721 543.293 82.0805 542.829 81.5237 541.901C81.2452 541.53 81.1524 433.59 81.338 302.261L81.5237 63.2702L92.9395 61.6924C99.1579 60.7643 115.957 58.444 130.25 56.4949C173.593 50.555 298.982 32.4566 317.08 29.5795C326.454 28.0017 334.529 26.7951 334.993 26.7951C335.457 26.7951 335.828 41.645 335.828 63.9199C335.828 84.3385 336.2 101.045 336.571 101.045C337.035 101.045 339.819 100.209 342.696 99.1884C349.379 96.9609 357.361 95.3831 366.92 94.6406L374.345 94.0837V47.2138V0.343701L187.515 0.065259C38.5517 -0.120365 0.591676 0.0653014 0.31324 0.99342Z" fill="#FF8A42"/>
<path d="M265.759 46.4721C265.016 47.6787 263.16 51.7624 261.675 55.5677C251.837 80.9982 254.157 107.542 268.636 137.149L273.369 146.895L264.552 156.64C254.807 167.406 248.681 175.481 241.256 187.082C236.43 194.693 234.667 196.271 234.667 193.115C234.667 190.238 223.622 164.065 219.167 156.361C210.536 141.233 200.976 130.003 190.117 122.021C180.001 114.596 166.357 108.471 159.768 108.471C156.612 108.471 156.612 108.471 157.262 111.905C158.468 118.865 162.459 131.209 165.522 137.799C175.267 158.96 194.665 177.43 230.769 199.983L232.811 201.375L230.49 206.016C225.107 216.596 218.703 234.602 214.991 249.452C212.856 258.176 210.814 265.323 210.536 265.323C210.257 265.323 208.03 262.074 205.431 258.176C190.024 234.416 177.866 221.887 162.181 213.441C154.849 209.543 143.34 205.645 135.915 204.531L131.367 203.788L131.924 206.944C132.295 208.707 135.08 215.111 138.142 221.237C149.93 245.09 170.163 264.209 197.356 277.11C203.296 279.987 208.308 282.4 208.494 282.586C208.68 282.678 208.308 286.02 207.844 290.011C205.802 304.953 204.039 325.929 204.689 326.486C205.06 326.764 211.093 326.95 218.054 326.764L230.676 326.486L230.305 307.274C230.119 296.693 230.212 284.906 230.676 281.193L231.418 274.233L240.236 273.026C265.852 269.406 284.228 261.239 298.057 247.317C305.204 240.078 313.186 227.455 311.608 225.878C311.051 225.321 306.132 224.949 299.357 225.042C276.618 225.321 260.933 232.56 240.978 252.236C236.987 256.041 233.739 258.64 233.739 257.898C233.739 254.928 238.565 235.623 241.349 227.27C246.083 212.884 254.157 195.807 261.489 184.669C262.139 183.648 263.346 183.648 268.729 184.948C295.18 190.98 320.796 191.259 342.143 185.968C352.074 183.463 367.759 176.13 372.957 171.675L376.205 168.798L373.885 166.849C370.172 163.601 357.271 157.846 349.382 155.805C344.278 154.505 338.987 153.948 332.119 153.948C315.228 153.948 300.842 157.568 282.279 166.478C276.525 169.262 271.792 171.211 271.792 170.933C271.792 170.098 276.154 164.529 282.836 156.918C294.623 143.368 313.371 128.611 332.398 117.845L337.688 114.782L340.751 116.638C354.58 125.177 378.432 134.829 394.303 138.263C407.019 141.14 425.488 141.326 436.533 138.727C444.051 137.057 450.919 134.643 450.919 133.808C450.919 132.323 446.092 127.033 440.06 121.928C420.383 105.129 393.746 99.0965 360.427 103.923C337.967 107.264 312.165 118.401 288.591 135.2L282.651 139.47L283.3 136.314C286.92 118.587 287.848 110.791 287.848 97.7971C287.848 81.9263 286.363 74.3157 280.702 62.5286C277.268 55.4749 269.657 44.4303 268.172 44.4303C267.615 44.4303 266.594 45.3584 265.759 46.4721Z" fill="#0A3B44"/>
<path d="M114.504 275.693C107.914 279.127 107.45 280.797 106.8 304C106.058 331.658 106.986 336.113 113.761 339.64C117.474 341.496 124.434 341.032 127.776 338.526C132.88 334.814 133.252 332.865 132.88 306.785C132.602 285.809 132.416 282.561 130.931 280.333C127.312 274.765 120.165 272.816 114.504 275.693Z" fill="#0A3B44"/>
<path d="M204.412 345.791C207.01 368.623 205.34 439.624 201.627 464.59L201.07 468.581H217.498H234.019L233.369 464.219C230.677 444.264 229.285 358.599 231.513 346.812C232.348 342.45 232.255 341.429 231.234 340.965C230.492 340.686 223.995 340.501 216.848 340.501H203.762L204.412 345.791Z" fill="#C45A23"/>
</svg>
